0
SECTION
2
HEADER
9
$INSUNITS
70
4
9
$ACADVER
1
AC1014
9
$HANDSEED
5
FFFF
0
ENDSEC
0
SECTION
2
TABLES
0
TABLE
2
VPORT
5
8
100
AcDbSymbolTable
0
ENDTAB
0
TABLE
2
LTYPE
5
5
100
AcDbSymbolTable
0
LTYPE
5
14
100
AcDbSymbolTableRecord
100
AcDbLinetypeTableRecord
2
BYBLOCK
70
0
0
LTYPE
5
15
100
AcDbSymbolTableRecord
100
AcDbLinetypeTableRecord
2
BYLAYER
70
0
0
ENDTAB
0
TABLE
2
LAYER
5
2
100
AcDbSymbolTable
70
2
0
LAYER
5
50
100
AcDbSymbolTableRecord
100
AcDbLayerTableRecord
2
0
70
0
6
CONTINUOUS
0
ENDTAB
0
TABLE
2
STYLE
5
3
100
AcDbSymbolTable
70
1
0
STYLE
5
11
100
AcDbSymbolTableRecord
100
AcDbTextStyleTableRecord
2
STANDARD
70
0
0
ENDTAB
0
TABLE
2
VIEW
5
6
100
AcDbSymbolTable
70
0
0
ENDTAB
0
TABLE
2
UCS
5
7
100
AcDbSymbolTable
70
0
0
ENDTAB
0
TABLE
2
APPID
5
9
100
AcDbSymbolTable
70
2
0
APPID
5
12
100
AcDbSymbolTableRecord
100
AcDbRegAppTableRecord
2
ACAD
70
0
0
ENDTAB
0
TABLE
2
DIMSTYLE
5
A
100
AcDbSymbolTable
70
1
0
ENDTAB
0
TABLE
2
BLOCK_RECORD
5
1
100
AcDbSymbolTable
70
1
0
BLOCK_RECORD
5
1F
100
AcDbSymbolTableRecord
100
AcDbBlockTableRecord
2
*MODEL_SPACE
0
BLOCK_RECORD
5
1B
100
AcDbSymbolTableRecord
100
AcDbBlockTableRecord
2
*PAPER_SPACE
0
ENDTAB
0
ENDSEC
0
SECTION
2
BLOCKS
0
BLOCK
5
20
100
AcDbEntity
100
AcDbBlockBegin
2
*MODEL_SPACE
0
ENDBLK
5
21
100
AcDbEntity
100
AcDbBlockEnd
0
BLOCK
5
1C
100
AcDbEntity
100
AcDbBlockBegin
2
*PAPER_SPACE
0
ENDBLK
5
1D
100
AcDbEntity
100
AcDbBlockEnd
0
ENDSEC
0
SECTION
2
ENTITIES
0
LWPOLYLINE
5
100
100
AcDbEntity
8
0
100
AcDbPolyline
90
22
70
1
43
0.0
10
145.96910431204978
20
131.49306104011166
10
145.96910431204978
20
179.18753327916835
42
0.19891236737965129
10
143.04017212391526
20
186.25860109103394
10
123.89803650018433
20
205.40073671476483
42
0.19891236737965864
10
116.82696868831877
20
208.32966890289939
10
25.969104312049787
20
208.32966890289939
42
0.41421356237309637
10
23.969104312049776
20
206.32966890289939
10
23.96910431204978
20
131.42969765528818
42
0.15144632623791562
10
25.722623632554317
20
125.77323618165393
10
97.215584991545228
20
21.54458947117849
42
-0.15144632623791277
10
98.969104312049751
20
15.888127997544286
10
98.96910431204978
20
-20.528195473369635
42
0.19891236737965884
10
101.89803650018435
20
-27.599263285235182
10
118.04017212391526
20
-43.741398908966062
42
0.19891236737965551
10
125.1112399357808
20
-46.670331097100615
10
194.82696868831877
20
-46.6703310971006
42
0.1989123673796592
10
201.89803650018433
20
-43.741398908966076
10
218.04017212391526
20
-27.599263285235164
42
0.19891236737965715
10
220.96910431204978
20
-20.52819547336961
10
220.96910431204978
20
18.485363189241923
42
0.15439899380671512
10
219.14975731006825
20
24.236616663573507
10
147.78845131403125
20
125.74180756578005
42
-0.1543989938067081
0
CIRCLE
5
101
100
AcDbEntity
8
0
100
AcDbCircle
10
33.96910431204978
20
198.32966890289939
30
0
40
2.9999999999999982
210
0
220
0
230
1
0
CIRCLE
5
102
100
AcDbEntity
8
0
100
AcDbCircle
10
53.96910431204978
20
138.32966890289939
30
0
40
2.9999999999999982
210
0
220
0
230
1
0
CIRCLE
5
103
100
AcDbEntity
8
0
100
AcDbCircle
10
33.96910431204978
20
158.32966890289939
30
0
40
2.9999999999999982
210
0
220
0
230
1
0
CIRCLE
5
104
100
AcDbEntity
8
0
100
AcDbCircle
10
53.96910431204978
20
168.32966890289939
30
0
40
10
210
0
220
0
230
1
0
CIRCLE
5
105
100
AcDbEntity
8
0
100
AcDbCircle
10
53.96910431204978
20
198.32966890289939
30
0
40
2.9999999999999982
210
0
220
0
230
1
0
CIRCLE
5
106
100
AcDbEntity
8
0
100
AcDbCircle
10
33.96910431204978
20
138.32966890289939
30
0
40
2.9999999999999982
210
0
220
0
230
1
0
CIRCLE
5
107
100
AcDbEntity
8
0
100
AcDbCircle
10
149.99929565669927
20
-31.998857785579023
30
0
40
3.0000000000000071
210
0
220
-0
230
1
0
CIRCLE
5
108
100
AcDbEntity
8
0
100
AcDbCircle
10
33.96910431204978
20
178.32966890289939
30
0
40
2.9999999999999982
210
0
220
0
230
1
0
CIRCLE
5
109
100
AcDbEntity
8
0
100
AcDbCircle
10
169.99929565669925
20
-31.998857785579165
30
0
40
2.9999999999999716
210
0
220
-0
230
1
0
CIRCLE
5
110
100
AcDbEntity
8
0
100
AcDbCircle
10
53.96910431204978
20
183.32966890289939
30
0
40
1.5000000000000031
210
0
220
0
230
1
0
CIRCLE
5
111
100
AcDbEntity
8
0
100
AcDbCircle
10
53.96910431204978
20
153.32966890289939
30
0
40
1.5000000000000031
210
0
220
0
230
1
0
CIRCLE
5
112
100
AcDbEntity
8
0
100
AcDbCircle
10
105
20
15.250000000000002
30
0
40
2.5
210
0
220
0
230
1
0
CIRCLE
5
113
100
AcDbEntity
8
0
100
AcDbCircle
10
131
20
15.250000000000002
30
0
40
2.5
210
0
220
0
230
1
0
CIRCLE
5
114
100
AcDbEntity
8
0
100
AcDbCircle
10
105
20
-15.250000000000002
30
0
40
2.5
210
0
220
0
230
1
0
CIRCLE
5
115
100
AcDbEntity
8
0
100
AcDbCircle
10
131
20
-15.250000000000002
30
0
40
2.5
210
0
220
0
230
1
0
CIRCLE
5
116
100
AcDbEntity
8
0
100
AcDbCircle
10
189
20
15.250000000000002
30
0
40
2.5
210
0
220
0
230
1
0
CIRCLE
5
117
100
AcDbEntity
8
0
100
AcDbCircle
10
189
20
-15.250000000000002
30
0
40
2.5
210
0
220
0
230
1
0
CIRCLE
5
118
100
AcDbEntity
8
0
100
AcDbCircle
10
215
20
15.250000000000002
30
0
40
2.5
210
0
220
0
230
1
0
CIRCLE
5
119
100
AcDbEntity
8
0
100
AcDbCircle
10
215
20
-15.250000000000002
30
0
40
2.5
210
0
220
0
230
1
0
ENDSEC
0
SECTION
2
OBJECTS
0
DICTIONARY
5
C
100
AcDbDictionary
3
ACAD_GROUP
350
D
3
ACAD_MLINESTYLE
350
17
0
DICTIONARY
5
D
100
AcDbDictionary
0
DICTIONARY
5
1A
330
C
100
AcDbDictionary
0
DICTIONARY
5
17
100
AcDbDictionary
0
ENDSEC
0
EOF
